<svg width="50" height="17" viewBox="0 0 50 17" fill="none" xmlns="http://www.w3.org/2000/svg">
<g clip-path="url(#clip0_7086_10877)">
<path d="M3.39131 16.6335V1.71342H5.51972V8.09864H8.15894V1.71342H10.2873V16.6335H8.15894V9.98937H5.53036V16.6335H3.39131Z" fill="white"/>
<path d="M12.5309 16.6335V1.71342H18.9161V3.72476H14.6664V8.10573H18.3556V10.1171H14.6664V14.4945H18.8877V16.6229L12.5309 16.6335Z" fill="white"/>
<path d="M19.5267 16.6335L22.8577 1.71342H24.6313L27.9658 16.6335H25.8374L25.2095 13.4409H22.2936L21.6658 16.6335H19.5267ZM24.8087 11.4154L23.7445 6.00925H23.7055L22.6413 11.4154H24.8087Z" fill="white"/>
<path d="M29.2269 16.6335V1.71342H32.6643C35.1758 1.71342 36.4327 3.17374 36.4351 6.09439C36.4549 6.86181 36.316 7.62505 36.0271 8.33631C35.7322 8.9755 35.233 9.49841 34.6082 9.82264L36.914 16.6335H34.6508L32.6607 10.2483H31.3801V16.6335H29.2269ZM31.3553 3.72476V8.37533H32.572C32.8801 8.3892 33.1876 8.33594 33.4731 8.21924C33.6875 8.12235 33.8697 7.966 33.9981 7.76873C34.1168 7.54796 34.1949 7.30765 34.2286 7.05926C34.2711 6.72991 34.2912 6.39807 34.2889 6.06601C34.2912 5.73277 34.271 5.39975 34.2286 5.06921C34.1934 4.80811 34.1079 4.55632 33.9768 4.32781C33.7107 3.93406 33.207 3.73895 32.4656 3.73895L31.3553 3.72476Z" fill="white"/>
<path d="M39.3889 16.6335V3.72476H36.9057V1.71342H44.0004V3.72476H41.5173V16.6335H39.3889Z" fill="white"/>
</g>
<defs>
<clipPath id="clip0_7086_10877">
<rect width="49.1156" height="16.8204" fill="white" transform="scale(1.01068)"/>
</clipPath>
</defs>
</svg>
