<svg width="210" height="79" viewBox="0 0 210 79" fill="none" xmlns="http://www.w3.org/2000/svg">
<path d="M43.0718 47.1514H165.863" stroke="#050404" stroke-width="1.7"/>
<path d="M45.9375 52.791H163.064V77.537H45.9375V52.791Z" fill="#FDE0D9"/>
<path d="M57.3489 68.4155H56.1457L55.6937 67.1135L55.1832 65.6505H52.6822L51.6103 68.4594H50.3124L51.4791 65.6651L52.4999 63.2293L53.3749 61.1373H54.7603L55.803 64.0632L56.4155 65.7675L57.3489 68.4155ZM54.9134 64.6849L54.0166 62.0662L53.8926 62.3442L52.9812 64.6849H54.9134ZM63.4957 68.1961L62.7666 68.3716L62.3145 68.4448C62.0666 68.4448 61.8405 68.496 61.6291 68.5179C61.4176 68.5398 61.1697 68.5179 60.8999 68.5179C60.0727 68.5501 59.2603 68.2914 58.603 67.7864C58.3797 67.5945 58.1835 67.373 58.0197 67.1281C57.8447 66.8884 57.7048 66.6248 57.6041 66.3454C57.4338 65.8441 57.3524 65.3168 57.3634 64.7873C57.358 64.29 57.4369 63.7953 57.5968 63.3244C57.7555 62.8787 58.0037 62.4704 58.3259 62.1248C58.6471 61.7721 59.04 61.4927 59.478 61.3055C59.9773 61.1001 60.5135 61.0005 61.053 61.0129C61.4139 61.0138 61.7744 61.0383 62.1322 61.0861C62.4935 61.1312 62.8515 61.1996 63.2041 61.2909L63.2916 62.3588C62.9629 62.2394 62.6267 62.1417 62.2853 62.0662C61.9505 61.9891 61.6081 61.9498 61.2645 61.9492C60.8913 61.9435 60.5203 62.008 60.1707 62.1394C59.8547 62.2595 59.5667 62.4438 59.3249 62.6807C59.0336 62.9464 58.8088 63.2772 58.6687 63.6462C58.5362 64.0145 58.4696 64.4032 58.4718 64.7947C58.4273 65.5151 58.6334 66.2287 59.0551 66.8136C59.2479 67.0645 59.498 67.2652 59.7843 67.3987C60.1044 67.546 60.4529 67.6209 60.8051 67.6182C61.3293 67.6196 61.8505 67.5406 62.3509 67.3841V65.1897H61.1114V64.3119H63.4957V68.218V68.1961ZM69.1687 68.4155H64.7937V61.1519H69.1687V62.0809H65.9457V64.2753H68.7895V65.1677H65.9457V67.4719H69.1687V68.4082V68.4155ZM79.0416 64.5387C79.0882 65.4461 78.8594 66.3465 78.3853 67.1208C78.0558 67.6201 77.5791 68.0036 77.0218 68.218C76.6191 68.3593 76.1941 68.4263 75.7676 68.4155H73.0405V61.1519H76.1905C76.5644 61.1468 76.9357 61.2138 77.2843 61.3494C77.6365 61.4957 77.9508 61.7209 78.203 62.0077C78.4822 62.3173 78.6956 62.6807 78.8301 63.0757C78.985 63.5474 79.059 64.0421 79.0489 64.5387H79.0416ZM77.9259 64.5387C77.9338 64.1796 77.8846 63.8215 77.7801 63.478C77.6891 63.1942 77.5401 62.9327 77.3426 62.7099C77.1719 62.5098 76.9572 62.352 76.7155 62.2491C76.4699 62.15 76.2073 62.1003 75.9426 62.1028H74.1416V67.5011H75.4322C75.798 67.511 76.1621 67.4489 76.5041 67.3183C76.8038 67.1931 77.0708 67.0004 77.2843 66.755C77.5172 66.4796 77.6843 66.1543 77.7728 65.8041C77.8879 65.3873 77.9443 64.9565 77.9405 64.524L77.9259 64.5387ZM84.452 68.4155H80.077V61.1519H84.452V62.0809H81.2291V64.2753H84.0728V65.1677H81.2291V67.4719H84.452V68.4082V68.4155ZM89.8114 62.0809H86.8218V64.2753H89.4759V65.1677H86.8291V68.4082H85.6624V61.1519H89.8186L89.8114 62.0809ZM95.6957 61.1519L94.5291 63.2512L93.3332 65.3725V68.4155H92.1666V65.2482L91.3426 63.6828L90.8541 62.7685L90.5114 62.1248L90.0009 61.1519H91.277L91.8603 62.3661L92.2832 63.1927L92.8155 64.2753L93.6322 62.6661L94.4124 61.1446H95.6739L95.6957 61.1519ZM97.2926 68.4155H96.1259V61.1519H97.2926V68.4155ZM104.621 68.4155H103.199L101.617 65.8334L100.742 64.3704L99.7353 62.688V68.4155H98.6999V61.1519H100.158L103.542 66.9525V61.1519H104.577V68.4155H104.621ZM111.854 68.1961L111.125 68.3716L110.687 68.4448C110.432 68.4448 110.199 68.496 109.995 68.5179C109.791 68.5398 109.535 68.5179 109.266 68.5179C108.438 68.5501 107.626 68.2914 106.969 67.7864C106.746 67.5942 106.549 67.3728 106.385 67.1281C106.215 66.88 106.08 66.6092 105.984 66.3235C105.814 65.8197 105.732 65.29 105.744 64.7581C105.738 64.2607 105.817 63.766 105.977 63.2951C106.136 62.8494 106.384 62.4411 106.706 62.0955C107.031 61.7383 107.429 61.4562 107.873 61.2689C108.371 61.0583 108.907 60.9537 109.448 60.9617C109.809 60.9626 110.169 60.9871 110.527 61.0349C110.889 61.0848 111.247 61.1581 111.599 61.2543L111.694 62.3149C111.36 62.1952 111.019 62.0975 110.673 62.0224C110.343 61.946 110.005 61.9067 109.667 61.9053C109.288 61.8982 108.912 61.9627 108.558 62.0955C108.245 62.2176 107.96 62.4017 107.72 62.6368C107.418 62.9095 107.185 63.2506 107.042 63.6316C106.909 63.9998 106.842 64.3886 106.845 64.78C106.807 65.503 107.021 66.2167 107.45 66.7989C107.643 67.0498 107.893 67.2505 108.179 67.3841C108.499 67.5313 108.848 67.6062 109.2 67.6036C109.724 67.6047 110.245 67.5258 110.746 67.3695V65.175H109.455V64.2973H111.861V68.2034L111.854 68.1961ZM119.467 66.7258C119.482 67.1767 119.319 67.6155 119.014 67.9473C118.792 68.1534 118.529 68.3115 118.243 68.4121C117.958 68.5128 117.654 68.5537 117.352 68.5325H116.987L116.528 68.474C116.236 68.4155 115.937 68.3423 115.631 68.2546L115.507 67.1427C115.763 67.281 116.032 67.3937 116.309 67.4792C116.587 67.5704 116.877 67.6198 117.17 67.6255C117.307 67.6235 117.444 67.6063 117.578 67.5743C117.709 67.5443 117.832 67.4897 117.943 67.4134C118.065 67.337 118.163 67.2283 118.228 67.0992C118.292 66.9701 118.32 66.8257 118.307 66.6819C118.299 66.4435 118.218 66.2134 118.074 66.0236C117.891 65.7848 117.686 65.5643 117.461 65.3652L116.732 64.7508C116.496 64.5363 116.277 64.304 116.076 64.0559C115.919 63.8609 115.791 63.6441 115.697 63.4122C115.608 63.194 115.563 62.9603 115.566 62.7246C115.553 62.4859 115.594 62.2475 115.687 62.0271C115.779 61.8067 115.919 61.6101 116.098 61.4518C116.513 61.1272 117.031 60.9636 117.556 60.991H118.242L118.971 61.0861L119.131 62.2125L118.854 62.176L118.562 62.0809C118.324 62.022 118.079 61.9925 117.833 61.9931C117.575 61.9792 117.32 62.0484 117.104 62.1906C116.99 62.2702 116.9 62.3787 116.842 62.5051C116.786 62.6191 116.756 62.744 116.754 62.8709C116.758 63.1385 116.853 63.3966 117.024 63.6023C117.211 63.8394 117.418 64.0597 117.644 64.2607L118.373 64.8678C118.608 65.0728 118.823 65.3007 119.014 65.5481C119.158 65.7339 119.275 65.9381 119.364 66.1552C119.433 66.3427 119.467 66.5408 119.467 66.7404V66.7258ZM121.712 68.4155H120.546V61.1519H121.712V68.4155ZM125.869 68.4155H124.454L123.229 66.638L122.551 65.6578L121.822 64.5606L122.864 63.0611L123.462 62.1833L124.192 61.1592H125.548L123.083 64.546L125.869 68.4155ZM127.531 68.4155H126.364V61.1519H127.531V68.4155ZM134.896 68.4155H133.437L131.862 65.8334L130.987 64.3704L129.981 62.688V68.4155H128.946V61.1519H130.404L133.853 66.9525V61.1519H134.896V68.4155ZM141.094 67.2963L140.999 68.3424L140.612 68.4301C140.467 68.4301 140.292 68.4886 140.087 68.5033L139.599 68.5398H139.307C138.836 68.546 138.368 68.4718 137.922 68.3204C137.5 68.1644 137.118 67.9143 136.806 67.5889C136.48 67.2516 136.232 66.8473 136.077 66.4039C135.891 65.8757 135.802 65.3181 135.814 64.7581C135.804 64.2268 135.882 63.6975 136.048 63.1927C136.273 62.5127 136.718 61.9276 137.313 61.5301C137.907 61.1325 138.617 60.9454 139.329 60.9983C139.602 60.9977 139.875 61.0148 140.146 61.0495C140.437 61.0861 140.714 61.1226 140.984 61.1958L141.021 61.6493L141.072 62.2345L140.729 62.1613C140.539 62.1101 140.364 62.0736 140.204 62.0443L139.752 61.9711C139.601 61.9632 139.45 61.9632 139.3 61.9711C138.946 61.9547 138.593 62.0278 138.275 62.1838C137.956 62.3397 137.682 62.5735 137.477 62.8636C137.094 63.4348 136.902 64.1139 136.93 64.802C136.891 65.5172 137.097 66.2243 137.513 66.8062C137.704 67.0646 137.954 67.2728 138.243 67.4134C138.563 67.5606 138.911 67.6355 139.263 67.6328H139.701C139.858 67.6167 140.013 67.5923 140.168 67.5597L140.583 67.4865L141.094 67.2963ZM148.094 68.4155H146.869L146.431 67.1135L145.921 65.6505H143.427L142.355 68.4594H141.072L142.238 65.6651L143.23 63.2732L144.105 61.1885H145.491L146.533 64.1144L147.146 65.826L148.094 68.4155ZM145.666 64.6849L144.754 62.0662L144.63 62.3442L143.719 64.6849H145.666ZM153.125 68.4155H151.842L150.821 66.3454L149.887 64.4143L150.237 64.4655H150.471C150.837 64.4784 151.196 64.3676 151.492 64.151C151.635 64.0292 151.749 63.8764 151.824 63.7041C151.9 63.5317 151.936 63.3444 151.929 63.1561C151.949 62.8596 151.861 62.566 151.681 62.3296C151.595 62.2184 151.478 62.1346 151.346 62.0882C151.198 62.038 151.042 62.0133 150.886 62.015H149.501V68.3936H148.385V61.1519H151.061C151.357 61.1424 151.653 61.182 151.936 61.2689C152.173 61.3502 152.388 61.4854 152.563 61.6639C152.727 61.84 152.853 62.0474 152.934 62.2737C153.016 62.5 153.051 62.7404 153.037 62.9806C153.061 63.4361 152.933 63.8866 152.673 64.2607C152.299 64.6839 151.776 64.946 151.214 64.9922L151.944 66.3674L152.491 67.3695L153.125 68.4155ZM158.448 68.4155H154.073V61.1519H158.448V62.0809H155.218V64.2753H158.061V65.1677H155.218V67.4719H158.441V68.4082L158.448 68.4155ZM66.1062 3.84031H61.053V18.0676H58.0999V3.84031H53.0468V1.73365H66.0989L66.1062 3.84031ZM70.3062 18.0676H67.353V1.73365H70.3062V18.0676ZM90.7812 18.0676H88.1562V4.60837L85.6041 11.6306L83.3437 18.0676H80.5728L78.3124 11.5867L77.1093 8.10485L75.8478 4.44744L75.7749 18.0384H73.4999V1.72633H77.627L79.5228 7.2417L80.6384 10.5334L82.053 14.6297L82.1478 14.3956L86.6832 1.70439H90.7666V18.0676H90.7812ZM105.189 18.0676H94.0041V1.73365H105.189V3.84031H96.9791V8.77782H104.271V10.7821H96.9791V15.9756H105.204V18.0676H105.189ZM118.592 18.0676H107.917V1.73365H110.833V15.961H118.562V18.0676H118.592ZM130.849 18.0676H119.656V1.73365H130.842V3.84031H122.617V8.77782H129.908V10.7821H122.617V15.9756H130.842V18.0676H130.849ZM142.88 14.2639C142.896 14.7778 142.802 15.2892 142.605 15.7636C142.407 16.238 142.111 16.6645 141.735 17.0143C140.532 17.9696 139.015 18.4392 137.484 18.331H136.536C136.536 18.331 135.807 18.2578 135.384 18.2066C134.616 18.0701 133.843 17.9043 133.066 17.7092L132.737 15.2075C133.407 15.5138 134.102 15.7586 134.816 15.939C135.528 16.1369 136.264 16.2402 137.003 16.2462C137.355 16.2478 137.707 16.216 138.053 16.1511C138.386 16.0884 138.707 15.9697 139.001 15.8C139.275 15.6456 139.507 15.4274 139.679 15.1636C139.854 14.8861 139.943 14.5628 139.934 14.2347C139.903 13.6912 139.686 13.1749 139.322 12.7717C138.85 12.2348 138.327 11.7449 137.761 11.3087C137.156 10.8552 136.566 10.3871 135.982 9.91893C135.383 9.44252 134.822 8.91908 134.305 8.35356C133.913 7.91714 133.588 7.42396 133.343 6.89059C133.119 6.40958 133.002 5.8854 133 5.35448C132.979 4.80291 133.094 4.25466 133.332 3.75745C133.571 3.26025 133.928 2.82916 134.371 2.5017C135.487 1.74583 136.818 1.37598 138.162 1.44837C138.717 1.44837 139.3 1.47275 139.912 1.52152C140.496 1.57272 141.108 1.63856 141.706 1.71902L142.122 4.24263C141.874 4.14022 141.582 4.05244 141.276 3.96467L140.547 3.75985C139.952 3.63117 139.346 3.56498 138.738 3.56235C138.092 3.52828 137.449 3.68058 136.886 4.00124C136.577 4.16822 136.324 4.42255 136.157 4.73272C136.011 4.98918 135.93 5.27838 135.924 5.57393C135.958 6.16134 136.201 6.71698 136.609 7.1393C137.103 7.67002 137.64 8.15931 138.213 8.60226L140.036 9.97013C140.624 10.4229 141.169 10.9298 141.662 11.4843C142.018 11.8904 142.318 12.3432 142.552 12.8302C142.761 13.2717 142.873 13.7532 142.88 14.242V14.2639ZM154.62 14.2639C154.637 14.7779 154.543 15.2896 154.346 15.7641C154.148 16.2387 153.851 16.6651 153.475 17.0143C152.271 17.9703 150.755 18.44 149.224 18.331H148.276C148.276 18.331 147.547 18.2578 147.124 18.2066C146.361 18.0701 145.588 17.9043 144.805 17.7092L144.484 15.2075C145.153 15.5141 145.849 15.7589 146.562 15.939C147.275 16.1369 148.01 16.2402 148.75 16.2462C149.105 16.2482 149.459 16.2164 149.807 16.1511C150.141 16.0884 150.461 15.9697 150.755 15.8C151.028 15.6438 151.26 15.4259 151.433 15.1636C151.608 14.8859 151.696 14.5628 151.688 14.2347C151.657 13.691 151.441 13.1746 151.076 12.7717C150.602 12.2338 150.077 11.7438 149.508 11.3087C148.905 10.8503 148.312 10.3871 147.729 9.91893C147.135 9.44146 146.579 8.91807 146.067 8.35356C145.674 7.91714 145.35 7.42396 145.104 6.89059C144.878 6.4102 144.761 5.88561 144.761 5.35448C144.741 4.80291 144.855 4.25466 145.094 3.75745C145.333 3.26025 145.689 2.82916 146.132 2.5017C147.248 1.75203 148.576 1.38739 149.917 1.463C150.466 1.463 151.042 1.48738 151.645 1.53615C152.247 1.58491 152.85 1.65075 153.453 1.73365L153.854 4.25726C153.592 4.15485 153.307 4.06707 153.001 3.9793L152.272 3.77448C151.677 3.6458 151.071 3.57961 150.463 3.57698C149.815 3.54191 149.169 3.69423 148.604 4.01587C148.295 4.18284 148.041 4.43718 147.875 4.74735C147.728 5.00357 147.647 5.29292 147.642 5.58856C147.675 6.17471 147.915 6.72979 148.32 7.15393C148.818 7.68574 149.359 8.17508 149.938 8.61689L151.747 9.98476C152.339 10.4373 152.889 10.9442 153.387 11.4989C153.744 11.9046 154.043 12.3574 154.277 12.8449C154.494 13.2846 154.613 13.7662 154.627 14.2566L154.62 14.2639ZM51.8801 28.6887C51.8766 29.1892 51.7828 29.6849 51.603 30.1517C51.3784 30.7866 50.9789 31.3446 50.4509 31.761C50.0158 32.1062 49.5217 32.3689 48.9926 32.5363C48.3661 32.7253 47.7144 32.8166 47.0603 32.807C46.7336 32.8 46.4074 32.7756 46.0832 32.7338L45.3541 32.6387L45.0187 31.6147L45.8791 31.7463C46.169 31.7888 46.4612 31.8132 46.7541 31.8195H47.3374C48.2022 31.7862 49.0279 31.4497 49.6707 30.8686C49.9566 30.575 50.1787 30.2252 50.323 29.8412C50.4673 29.4572 50.5307 29.0474 50.5093 28.6375C50.5268 28.312 50.4776 27.9863 50.3648 27.6806C50.2519 27.3748 50.0777 27.0956 49.853 26.86C49.6069 26.6368 49.319 26.4649 49.006 26.3544C48.6931 26.2439 48.3613 26.197 48.0301 26.2163H44.3843V39.4415H43.0718V25.1776H48.1249C48.643 25.1411 49.1632 25.2097 49.6543 25.3794C50.1454 25.549 50.5974 25.8163 50.9832 26.1651C51.2949 26.5032 51.535 26.9011 51.6892 27.3348C51.8433 27.7686 51.9083 28.2291 51.8801 28.6887ZM62.7593 39.4488H61.1041L58.428 35.4696L55.8978 31.6878L56.627 31.7975C56.8853 31.8384 57.1458 31.8629 57.4072 31.8707C57.9003 31.8759 58.3915 31.8093 58.8655 31.6732C59.2751 31.5513 59.6601 31.3582 60.003 31.1026C60.327 30.8184 60.5773 30.4594 60.7322 30.0566C60.8972 29.6553 60.9815 29.2252 60.9801 28.7912C61.002 28.4479 60.9531 28.1037 60.8364 27.7803C60.7197 27.4568 60.5378 27.161 60.302 26.9112C59.7279 26.432 58.9904 26.1959 58.2457 26.2529H54.9499V39.4342H53.5645V25.1703H58.4645C59.4778 25.1099 60.4813 25.399 61.3082 25.9896C61.6774 26.2967 61.9698 26.6862 62.1623 27.1269C62.3547 27.5676 62.4418 28.0474 62.4166 28.5278C62.4421 29.1038 62.3373 29.6781 62.11 30.2077C61.8827 30.7372 61.5388 31.2082 61.1041 31.5854C60.3624 32.2309 59.4098 32.5798 58.428 32.5656H57.8082L59.9957 35.4915L61.3374 37.3714L62.7593 39.4488ZM73.077 39.4415H64.4291V25.1776H73.077V26.2529H65.8437V31.6293H72.4426V32.6973H65.8437V38.3662H73.077V39.4342V39.4415ZM82.6436 36.3547C82.6572 36.7918 82.5828 37.2271 82.4249 37.6348C82.2537 38.0012 82.0049 38.3257 81.6957 38.5857C81.2786 38.9689 80.7798 39.2516 80.2374 39.4123C79.6094 39.5934 78.9585 39.6821 78.3051 39.6756C77.7419 39.6752 77.1801 39.6188 76.628 39.5074C76.3023 39.4586 76.0301 39.4049 75.8114 39.3464C75.5926 39.2879 75.2426 39.2001 74.7759 39.0538L74.6301 37.6786C75.1816 37.9562 75.7577 38.1815 76.3509 38.3516C76.9802 38.5417 77.6334 38.6403 78.2905 38.6442C78.6646 38.6424 79.037 38.5932 79.3989 38.4979C79.735 38.4107 80.0551 38.2699 80.3468 38.081C80.6184 37.9123 80.8439 37.6786 81.003 37.4007C81.1595 37.0907 81.2348 36.7458 81.2218 36.3986C81.2213 35.9046 81.06 35.4243 80.7624 35.0307C80.1099 34.235 79.3603 33.5247 78.5311 32.9167L77.0145 31.7171C76.5676 31.3537 76.1529 30.9524 75.7749 30.5174C75.1694 29.8738 74.8171 29.0318 74.7832 28.1474C74.774 27.6938 74.8661 27.2439 75.053 26.8308C75.2505 26.4356 75.5347 26.0905 75.8843 25.8213C76.2823 25.5128 76.7388 25.2888 77.2259 25.163C77.7871 25.0127 78.3659 24.9389 78.9468 24.9436C79.3465 24.9434 79.7459 24.9678 80.1426 25.0167C80.4853 25.0533 80.9884 25.1411 81.652 25.2654L81.7395 25.8506L81.8124 26.5821C81.4843 26.465 81.2509 26.3846 81.0832 26.348L80.4634 26.2017C80.2232 26.1398 79.9798 26.091 79.7343 26.0554C79.4681 26.0244 79.2002 26.0097 78.9322 26.0115C78.2343 25.9867 77.546 26.181 76.9634 26.5674C76.6982 26.7529 76.485 27.0037 76.3445 27.2959C76.204 27.588 76.1409 27.9115 76.1614 28.2352C76.1957 28.7795 76.4143 29.2957 76.7812 29.6982C77.2203 30.1955 77.709 30.6464 78.2395 31.0441L80.0332 32.5071C80.549 32.9117 81.0363 33.3517 81.4916 33.8237C82.1883 34.4886 82.6012 35.3983 82.6436 36.362V36.3547ZM95.3603 37.9639L95.2145 39.2221L94.2082 39.4415L93.3916 39.5512C92.9978 39.6024 92.6624 39.6244 92.4728 39.6463C92.2832 39.6683 91.9259 39.6463 91.4811 39.6463C90.4903 39.6544 89.5049 39.4987 88.5645 39.1855C87.6838 38.8885 86.8761 38.4073 86.1947 37.7737C85.4991 37.1378 84.9514 36.3562 84.5905 35.4842C84.206 34.4812 84.0179 33.4133 84.0364 32.3388C84.0312 31.4601 84.1541 30.5852 84.4009 29.7421C84.6975 28.7253 85.2212 27.7897 85.9322 27.0063C86.5802 26.3399 87.367 25.8254 88.2364 25.4995C89.2732 25.1217 90.371 24.9406 91.4739 24.9655C92.0759 24.9708 92.6772 25.0099 93.2749 25.0825C93.9068 25.1508 94.5242 25.2435 95.127 25.3605L95.2145 25.9603L95.302 26.6406L94.3759 26.3846C94.0843 26.3114 93.7707 26.2383 93.428 26.1798C93.0853 26.1212 92.7572 26.0774 92.4801 26.0481C92.1506 26.0143 91.8196 25.9972 91.4884 25.9969C90.5414 25.9715 89.5989 26.1382 88.7176 26.487C87.9813 26.7971 87.3308 27.2815 86.8218 27.8987C86.2933 28.5634 85.9196 29.3382 85.728 30.1663C85.5491 30.8839 85.4609 31.6211 85.4655 32.3608C85.3718 33.9885 85.8925 35.592 86.9239 36.8521C87.4931 37.4512 88.1987 37.903 88.9801 38.1687C89.7882 38.4776 90.6456 38.6362 91.5103 38.6369C92.1852 38.6364 92.8588 38.5752 93.5228 38.454C94.1536 38.3422 94.7751 38.1833 95.3822 37.9786L95.3603 37.9639ZM106.662 39.4488H105L102.324 35.4696L99.7864 31.6878L100.516 31.7975C100.774 31.8384 101.034 31.8628 101.296 31.8707C101.789 31.8765 102.28 31.81 102.754 31.6732C103.164 31.5513 103.549 31.3582 103.892 31.1026C104.216 30.8188 104.466 30.4597 104.621 30.0566C104.789 29.656 104.876 29.2258 104.876 28.7912C104.898 28.4479 104.849 28.1037 104.732 27.7803C104.616 27.4568 104.434 27.161 104.198 26.9112C103.618 26.4325 102.876 26.1967 102.127 26.2529H98.7728V39.4342H97.3874V25.1703H102.295C103.303 25.1132 104.301 25.4022 105.124 25.9896C105.51 26.2854 105.821 26.6692 106.03 27.1093C106.239 27.5494 106.341 28.0331 106.327 28.5205C106.354 29.1031 106.248 29.6842 106.017 30.2193C105.786 30.7544 105.435 31.2292 104.993 31.6074C104.253 32.2511 103.303 32.5999 102.324 32.5875H101.704L103.892 35.5135L105.226 37.3934L106.662 39.4488ZM109.681 39.4415H108.274V25.1776H109.674V39.4415H109.681ZM121.406 28.6887C121.399 29.1901 121.3 29.6859 121.114 30.1517C120.895 30.7856 120.501 31.3438 119.977 31.761C119.542 32.1062 119.048 32.3689 118.519 32.5363C117.895 32.7245 117.245 32.8158 116.594 32.807C116.267 32.7999 115.941 32.7755 115.617 32.7338L114.887 32.6387L114.545 31.6147L115.398 31.7463C115.693 31.7893 115.99 31.8137 116.287 31.8195H116.856C117.721 31.7856 118.546 31.4492 119.189 30.8686C119.478 30.5766 119.701 30.227 119.846 29.8426C119.99 29.4582 120.052 29.0476 120.028 28.6375C120.045 28.312 119.996 27.9865 119.883 27.6808C119.77 27.3751 119.596 27.0958 119.372 26.86C119.126 26.6368 118.838 26.4649 118.525 26.3544C118.212 26.2439 117.88 26.197 117.549 26.2163H113.903V39.4415H112.591V25.1776H117.622C118.141 25.1401 118.663 25.2082 119.155 25.3779C119.648 25.5476 120.101 25.8154 120.487 26.1651C120.799 26.5032 121.039 26.9011 121.193 27.3348C121.347 27.7686 121.412 28.2291 121.384 28.6887H121.406ZM131.614 26.2602H127.239V39.4269H125.839V26.2602H121.362V25.1849H131.629L131.614 26.2602ZM134.167 39.4415H132.759V25.1776H134.167V39.4415ZM151.244 32.3315C151.25 33.2224 151.128 34.1095 150.879 34.9649C150.592 35.9768 150.067 36.9049 149.348 37.6713C148.683 38.3202 147.887 38.819 147.014 39.1343C144.982 39.8321 142.776 39.8321 140.744 39.1343C139.803 38.801 138.953 38.2496 138.264 37.525C137.645 36.9028 137.165 36.1545 136.857 35.3306C136.514 34.3688 136.346 33.3529 136.361 32.3315C136.36 31.4239 136.495 30.5213 136.762 29.6543C137.078 28.6087 137.641 27.6551 138.403 26.8747C139.073 26.2466 139.865 25.7636 140.729 25.4556C142.737 24.7628 144.919 24.7628 146.927 25.4556C147.837 25.8076 148.659 26.3571 149.333 27.0649C149.954 27.7246 150.435 28.5034 150.748 29.3544C151.092 30.3059 151.26 31.3123 151.244 32.3242V32.3315ZM149.836 32.3315C149.851 31.4302 149.716 30.5327 149.435 29.6762C149.19 28.9482 148.786 28.2837 148.254 27.7305C147.691 27.1537 147.005 26.7113 146.249 26.4358C145.465 26.1434 144.635 25.9947 143.799 25.9969C142.914 25.9789 142.033 26.1278 141.203 26.4358C140.494 26.7115 139.854 27.1411 139.329 27.6939C138.727 28.3482 138.292 29.1387 138.06 29.9981C137.861 30.7522 137.763 31.5295 137.769 32.3096C137.661 33.9618 138.194 35.5918 139.256 36.8594C139.801 37.4622 140.484 37.9218 141.247 38.198C142.924 38.7765 144.746 38.7765 146.424 38.198C147.114 37.9338 147.736 37.5191 148.247 36.9837C148.869 36.3093 149.309 35.4857 149.523 34.5918C149.716 33.8565 149.814 33.0993 149.814 32.3388L149.836 32.3315ZM165.754 39.4415H163.902L159.651 33.4946L157.391 30.4004L154.824 26.8015L154.78 33.3117V39.4342H153.468V25.1703H155.312L164.412 37.9127L164.456 25.1849H165.769V39.4269L165.754 39.4415ZM172.769 27.2843C172.759 27.8128 172.567 28.3217 172.227 28.7252C171.886 29.1286 171.418 29.4019 170.9 29.499C170.382 29.596 169.846 29.5108 169.384 29.2578C168.921 29.0048 168.559 28.5994 168.36 28.1101C168.161 27.6208 168.136 27.0774 168.289 26.5718C168.443 26.0661 168.766 25.629 169.203 25.3343C169.64 25.0396 170.166 24.9053 170.691 24.9541C171.215 25.0028 171.707 25.2316 172.083 25.6019C172.306 25.8208 172.481 26.0829 172.599 26.3722C172.717 26.6615 172.774 26.9718 172.769 27.2843ZM172.382 27.2843C172.388 26.929 172.308 26.5776 172.149 26.2602C172.014 26.0028 171.825 25.7781 171.595 25.6019C171.341 25.4182 171.048 25.2962 170.739 25.2454C170.431 25.1946 170.114 25.2165 169.816 25.3093C169.634 25.3638 169.462 25.4451 169.305 25.5507C169.028 25.7346 168.802 25.9863 168.649 26.2822C168.499 26.592 168.424 26.9328 168.43 27.277C168.428 27.552 168.477 27.8249 168.576 28.0816C168.693 28.3808 168.88 28.647 169.123 28.857C169.368 29.0739 169.664 29.225 169.983 29.2959C170.128 29.3225 170.274 29.3347 170.421 29.3324C170.585 29.3366 170.749 29.3219 170.909 29.2886C171.08 29.2465 171.244 29.1826 171.398 29.0984L171.544 29.0106C171.884 28.7828 172.141 28.4485 172.273 28.0597C172.361 27.8085 172.403 27.5433 172.397 27.277L172.382 27.2843ZM171.58 28.601H171.113L170.851 28.2206L170.778 28.0962L170.049 27.0722H170.545C170.695 27.0838 170.844 27.0366 170.96 26.9405C171.009 26.8932 171.047 26.8363 171.072 26.7732C171.097 26.7102 171.109 26.6426 171.106 26.5748C171.114 26.4962 171.098 26.4171 171.062 26.347C171.026 26.277 170.97 26.2189 170.902 26.1798C170.789 26.1242 170.663 26.099 170.537 26.1066H169.896V28.5644H169.517V25.8725H170.778C170.881 25.8646 170.984 25.8774 171.082 25.9101C171.179 25.9427 171.269 25.9946 171.347 26.0627C171.411 26.1255 171.461 26.2007 171.495 26.2837C171.529 26.3667 171.545 26.4558 171.544 26.5455C171.549 26.6763 171.51 26.805 171.434 26.9112C171.364 27.0089 171.26 27.0767 171.143 27.1014C171.09 27.1696 171.023 27.2247 170.946 27.2624C170.848 27.3114 170.741 27.3364 170.632 27.3355L171.58 28.601Z" fill="#050404"/>
</svg>
